<svg preserveAspectRatio="none" overflow="visible" style="display: block;" width="82" height="86.1406" viewBox="0 0 82 86.1406" fill="none" xmlns="http://www.w3.org/2000/svg">
<g id="Logos">
<g id="Vector">
<path d="M26.7138 64.7743V0H37.1172C39.3234 0 41.1139 1.79052 41.1139 3.99669V38.2243C43.428 28.3245 49.8547 19.8395 62.3283 19.8395C74.802 19.8395 82 27.1695 82 40.1547V86.1406H67.4721V44.5271C67.4721 36.8135 64.9022 31.5418 55.2582 31.5418C44.7149 31.5418 41.1139 40.7582 41.1139 51.0417V64.7743H26.7138Z" fill="black"/>
<path d="M0 78.9465V0H10.0197C12.5096 0 14.528 2.01833 14.528 4.50826V70.8852C14.528 72.2081 15.6031 73.2832 16.926 73.2832H36.5297C39.0196 73.2832 41.038 75.3016 41.038 77.7915V86.1366H7.19403C3.22133 86.1366 0 82.9152 0 78.9425V78.9465Z" fill="black"/>
</g>
</g>
</svg>
